<?xml version="1.0" encoding="UTF-8"?>
<svg width="604px" height="595px" viewBox="0 0 604 595" version="1.1" xmlns="http://www.w3.org/2000/svg" xmlns:xlink="http://www.w3.org/1999/xlink">
    <!-- Generator: sketchtool 57.1 (101010) - https://sketch.com -->
    <title>4121B03F-C6CB-4BC6-A43D-B9AF92CEDBAA</title>
    <desc>Created with sketchtool.</desc>
    <defs>
        <polygon id="path-1" points="0 0.00578810944 563.457336 0.00578810944 563.457336 544.999448 0 544.999448"></polygon>
        <polygon id="path-3" points="0 563 563 563 563 0 0 0"></polygon>
    </defs>
    <g id="Symbols" stroke="none" stroke-width="1" fill="none" fill-rule="evenodd">
        <g id="superhero-icon">
            <g transform="translate(21.000000, 13.000000)">
                <path d="M444,188 C444,226.109446 413.106526,257 374.99708,257 C336.890554,257 306,226.109446 306,188 C306,149.893474 336.890554,119 374.99708,119 C413.106526,119 444,149.893474 444,188" id="Fill-1" fill="#F59238"></path>
                <path d="M304.163115,257.967923 L264.291939,292.109776 C264.291939,292.109776 241.387408,299.736215 246.838774,350.934357 L246.838774,430.457181 C246.838774,430.457181 242.477681,445.70713 271.923852,445.70713 L306.821388,445.70713 L303.550569,559 L487.850712,559 L485.670165,252.894365 L542.376098,69.8832568 C542.376098,69.8832568 550.013872,39.3833572 511.842585,45.9177953 L472.583955,167.923249 C472.583955,167.923249 488.940985,253.983438 406.062632,280.127046 C406.062632,280.127046 352.759407,304.435038 304.163115,257.967923" id="Fill-3" fill="#F59238"></path>
                <path d="M304,238.03597 C304,238.03597 201.434377,234.846203 143.341311,288.542086 L38,376.812823 L114.69633,477.116217 C114.69633,477.116217 190.768349,535.970209 230.032462,533.51857 L286.706908,543 L286.706908,470.089356 C286.706908,470.089356 228.877635,475.560876 230.68022,429.744216 L230.601082,298.404296 C230.601082,298.404296 246.340727,277.279776 262.725199,266.846395 L304,238.03597 Z" id="Fill-5" fill="#F59238"></path>
                <g id="Group-9" transform="translate(0.000000, 18.000000)">
                    <mask id="mask-2" fill="white">
                        <use xlink:href="#path-1"></use>
                    </mask>
                    <g id="Clip-8"></g>
                    <path d="M364.348877,244.244387 C324.51325,243.901565 291.045117,209.475731 291.337875,169.151591 C291.639416,127.400489 325.157318,93.9181505 366.45381,94.1194172 C408.069407,94.3195753 441.432148,128.25022 441.1511,170.080435 C440.875907,211.875489 406.971564,244.613581 364.348877,244.244387 M284.273616,226.089441 C272.147566,233.41471 259.995167,240.707747 247.869117,248.033016 C237.479124,254.312237 229.337514,262.789038 223.868788,273.609925 C222.041976,277.225677 219.948754,278.848957 215.782803,279.601995 C194.897423,283.393554 176.421444,292.497398 161.806948,307.983016 C148.87874,321.684199 136.942983,336.325946 124.219705,350.955973 C129.299062,355.310113 133.828034,359.189575 138.70246,363.362048 C149.262253,351.032156 159.579057,339.048016 169.831454,327.008204 C181.181695,313.673285 195.178471,304.507909 212.076483,299.846108 C213.168471,299.544306 214.304373,299.403661 215.85892,299.10479 L215.85892,306.758231 C215.85892,341.500516 215.841355,376.245731 215.861848,410.988016 C215.876486,435.099871 231.934281,451.244763 255.94632,451.344387 C261.093011,451.367828 266.245558,451.347317 271.822604,451.347317 L271.822604,524.283554 C264.626604,523.123231 257.609187,522.165086 250.664959,520.834817 C231.231661,517.10772 211.3885,514.705032 192.50266,509.099737 C153.829283,497.628366 122.755913,474.377962 97.4733033,443.014091 C85.0252188,427.572425 71.9886899,412.596645 58.9375232,397.656027 C48.2840473,385.460919 37.2089993,373.635005 26.3388822,361.633285 C25.349359,360.540355 24.471084,359.347801 23.4083712,358.038043 C45.9654012,339.590086 68.4433865,321.484952 90.5876272,302.984253 C103.507053,292.186806 115.372548,280.079602 128.625718,269.736323 C163.701095,242.372048 203.560142,226.048419 247.798855,221.020355 C259.532609,219.687156 271.41567,219.567022 283.240179,219.210926 C285.181167,219.153876 287.174852,220.765435 290.365917,222.130866 C287.289027,224.137989 285.813525,225.160597 284.273616,226.089441 M531.106954,1.94207527 C514.085985,-2.89260215 498.75423,1.65199462 485.015082,11.9513226 C482.046512,14.1723441 479.414615,17.8232581 478.278712,21.3481774 C470.268844,46.2277204 462.701041,71.2508387 454.963438,96.2182849 C452.474992,104.25557 449.901646,112.266484 447.225835,120.734495 C417.589909,74.3538226 365.013439,67.280543 330.055165,82.4614301 C311.412314,90.5631774 296.540191,103.019065 286.059442,120.388742 C270.988243,145.359118 268.687162,171.999656 277.180082,199.533876 C266.784233,200.368957 256.804102,200.908097 246.885449,202.021538 C199.607905,207.327962 156.868115,224.354817 119.096434,253.219306 C106.93818,262.510677 96.2759217,273.730059 84.4777607,283.525409 C58.2846721,305.275597 31.8105356,326.682962 5.45057475,348.225113 C-1.29164979,353.733715 -1.77762863,358.817452 3.97507272,365.190435 C14.8246967,377.215597 25.8265551,389.103043 36.5971344,401.195597 C50.1284248,416.394065 64.4999316,430.98014 76.731375,447.180704 C110.348815,491.691968 153.138374,521.664038 208.089114,532.857048 C231.243371,537.574522 254.678676,540.923634 278.023226,544.682962 C287.2861,546.177317 291.285179,542.409199 291.299817,532.751565 C291.337875,507.696215 291.314454,482.640866 291.314454,457.588446 L291.314454,451.350247 L297.980562,451.350247 C320.177499,451.350247 342.374436,451.359038 364.568446,451.344387 C372.581242,451.338527 379.91191,449.302102 386.642425,445.047586 C384.516999,446.202048 382.122236,447.207075 379.425932,448.018715 C382.122236,447.207075 384.516999,446.202048 386.642425,445.047586 C387.260145,444.657882 387.88372,444.279898 388.48973,443.849172 C388.84104,443.600113 389.245046,443.395005 389.65198,443.186968 C406.85446,431.314172 402.846599,408.766995 402.846599,408.766995 C401.655072,401.488608 399.412543,395.810059 396.602063,391.350435 C394.584958,388.666457 392.160919,386.137774 389.291888,383.773177 C377.136561,373.746349 362.35812,375.990812 347.974903,375.706591 L347.974903,375.287586 L328.749463,375.023876 L328.749463,375.311027 L300.439732,375.311027 L300.439732,338.552828 L281.799808,338.552828 C281.799808,353.399683 281.799808,367.736699 281.802736,382.079575 C281.805664,392.077102 284.493185,394.758151 294.607986,394.764011 C317.639284,394.778661 340.670583,394.787452 363.698954,394.758151 C369.003735,394.75229 373.983554,395.619602 378.190491,399.170892 C384.241806,404.281 386.455059,412.136618 383.902207,419.517559 C381.091727,427.651538 374.200195,432.289898 364.433777,432.304548 C328.216643,432.35143 292.002437,432.35729 255.78823,432.304548 C242.338912,432.284038 234.832588,424.607156 234.823805,411.037828 C234.797457,376.128527 234.753543,341.216296 234.841371,306.304065 C234.885285,287.630489 242.792687,273.229011 258.86512,263.509844 C271.846025,255.663016 284.932323,247.980274 297.799052,239.948849 C300.943276,237.982747 302.746668,238.398823 305.483958,240.666726 C329.156397,260.310167 356.19263,267.234011 386.346739,261.089575 C432.151708,251.754253 464.844032,206.507532 459.960823,160.059468 C459.281624,153.58979 459.413365,146.537022 461.251887,140.377935 C472.183484,103.678339 483.72109,67.1604086 495.109389,30.5985269 C495.583658,29.074871 496.257002,27.3607581 497.381194,26.3381505 C506.330816,18.2012419 522.564266,16.8240914 532.439005,23.1941452 C542.881695,29.9333925 546.877846,41.9292527 542.864129,54.8832581 C525.117119,112.134629 507.320339,169.371349 489.634808,226.640301 C488.715547,229.6085 488.226641,232.834548 488.226641,235.940462 C488.153451,336.994011 488.165161,438.050489 488.165161,539.106968 L488.165161,544.715194 L507.080278,544.715194 L507.080278,538.374441 C507.080278,438.657022 507.06564,338.933742 507.141757,239.216323 C507.144684,235.955113 507.671649,232.567909 508.631897,229.444414 C526.182759,172.480194 543.944408,115.580435 561.416225,58.5927742 C568.890346,34.2172097 555.189255,8.78094624 531.106954,1.94207527" id="Fill-7" fill="#003E58" mask="url(#mask-2)"></path>
                </g>
                <path d="M151.801842,150.334794 C154.024067,153.186946 156.539076,156.410991 158.345549,158.727267 C161.621794,155.86633 164.663812,153.210373 167.01779,151.151786 C164.125091,148.328916 161.326083,145.599752 158.916476,143.248337 C156.623983,145.529473 153.836686,148.308418 151.801842,150.334794 M158.9926,104.000244 C164.892183,103.965352 168.203562,107.669637 168.739355,114.908365 C169.708468,127.936318 178.114276,137.904211 190.683463,140.741722 C192.773935,141.213176 194.993233,141.078475 197.136406,141.356663 C202.585103,142.056523 206.069225,145.907222 205.998957,151.043439 C205.922833,156.188442 202.383083,159.7141 196.773355,160.232407 C179.519636,161.816611 170.706859,170.59269 168.674943,188.209271 C168.004469,193.99264 164.16608,197.942901 159.153631,197.999278 C154.067985,198.060032 150.361348,194.282541 149.676235,188.352757 C147.644319,170.686396 138.811048,162.012806 121.015679,160.208981 C115.818776,159.681889 112.197047,156.068382 112.006738,151.219137 C111.825212,146.522163 115.329828,142.308356 120.324711,141.456224 C122.778235,141.034551 125.3518,141.219033 127.755551,140.645089 C139.663047,137.816362 147.641392,128.814805 149.295617,116.589202 C149.518132,114.934719 149.608895,113.259739 149.898751,111.619897 C150.70976,107.004915 154.305139,104.029775 158.9926,104.000244" id="Fill-10" fill="#003E58"></path>
                <path d="M47.0832624,38.9901805 C44.4597206,41.6932439 41.6312146,44.6013066 38.9227591,47.3892983 C41.3442647,49.7790055 44.1552024,52.5523544 46.9719961,55.334489 C49.6131063,52.5962828 52.4503965,49.6530773 55.1529959,46.8504428 C52.5470225,44.3143075 49.7331568,41.5731728 47.0832624,38.9901805 M93.9997856,46.9470854 C93.9673599,51.7264997 90.2106588,56.1252009 85.244669,56.1867007 C69.2106122,56.3887715 56.5994576,68.3841644 56.2012414,85.0535433 C56.0753348,90.2898134 51.5690504,94.1672304 46.6381973,93.9944452 C41.7366248,93.8275171 38.2727298,89.8007434 37.2537649,84.5703304 C36.2230877,79.2842748 35.1367774,73.6819343 32.5278759,69.0958051 C27.7463539,60.6966873 19.5624261,56.994984 10.0198784,56.3067718 C3.5840024,55.8440589 -0.011655332,52.4674261 2.83848054e-05,46.8738713 C0.00884108829,41.371102 3.84752781,37.72797 10.0433029,37.3443283 C25.6205823,36.3808311 36.4485483,25.6242203 37.3416067,10.2199805 C37.7046861,3.92357068 41.2037179,0.0988677832 46.6909024,0.00222521393 C52.2864251,-0.103203043 55.8469461,3.54285752 56.2949393,9.83633878 C57.4222424,25.7296486 68.0598846,36.3486169 83.8567685,37.3472568 C89.8007304,37.7221129 94.0347052,41.7313152 93.9997856,46.9470854" id="Fill-12" fill="#003E58"></path>
                <mask id="mask-4" fill="white">
                    <use xlink:href="#path-3"></use>
                </mask>
                <g id="Clip-15"></g>
                <polygon id="Fill-14" fill="#003E58" mask="url(#mask-4)" points="47 150 65 150 65 132 47 132"></polygon>
                <polygon id="Fill-16" fill="#003E58" mask="url(#mask-4)" points="151 27 169 27 169 9 151 9"></polygon>
                <polygon id="Fill-17" fill="#003E58" mask="url(#mask-4)" points="404 27 422 27 422 9 404 9"></polygon>
                <polygon id="Fill-18" fill="#003E58" mask="url(#mask-4)" points="254 84 272 84 272 66 254 66"></polygon>
                <path d="M37,226 L37,243.957873 C31.7563835,243.957873 26.819889,244.112876 21.9087532,243.828233 C20.902858,243.771868 19.2291835,242.103466 19.1728308,241.10017 C18.8854321,236.187965 19.0432196,231.250395 19.0432196,226 L37,226 Z" id="Fill-19" fill="#003E58" mask="url(#mask-4)"></path>
            </g>
        </g>
    </g>
</svg>