<?xml version="1.0" encoding="UTF-8"?>
<svg width="408px" height="183px" viewBox="0 0 408 183" version="1.1" xmlns="http://www.w3.org/2000/svg" xmlns:xlink="http://www.w3.org/1999/xlink">
    <!-- Generator: sketchtool 57.1 (101010) - https://sketch.com -->
    <title>3CC5CB3F-B70D-49C7-B789-F14897411C15</title>
    <desc>Created with sketchtool.</desc>
    <g id="Symbols" stroke="none" stroke-width="1" fill="none" fill-rule="evenodd">
        <g id="Secondary-Logo---CLR">
            <g id="Group-2" transform="translate(8.000000, 8.000000)">
                <polygon id="Fill-1" fill="#2F1C3F" points="0.3156 90 20.5917671 90 20.5917671 144.693789 50.3156 144.693789 50.3156 162 0.3156 162"></polygon>
                <path d="M56.8215133,162 L76.815819,162 L76.815819,113.384277 L56.8215133,113.384277 L56.8215133,162 Z M66.8140669,87 C72.6734625,87 77.3156,91.5459092 77.3156,97.1780356 C77.3156,102.810162 72.6734625,107.356071 66.8140669,107.356071 C60.9577375,107.356071 56.3156,102.810162 56.3156,97.1780356 C56.3156,91.5459092 60.9577375,87 66.8140669,87 L66.8140669,87 Z" id="Fill-2" fill="#2F1C3F"></path>
                <path d="M89.9884151,128.61684 L83.3156,128.61684 L83.3156,113.118486 L89.9884151,113.118486 L89.9884151,107.256445 C89.9884151,98.8088316 92.1491079,93.3480527 95.9757692,89.9659901 C100.097477,86.2912781 105.986482,85 111.482092,85 C114.915358,85 118.354585,85.4978058 120.3156,86.191717 L120.3156,101.593527 C118.253256,101.195283 115.505451,100.797038 113.934851,100.797038 C110.403236,100.797038 109.422728,102.884805 109.422728,106.459956 L109.422728,113.118486 L120.020554,113.118486 L120.020554,128.61684 L109.422728,128.61684 L109.422728,162 L89.9884151,162 L89.9884151,128.61684 Z" id="Fill-4" fill="#2F1C3F"></path>
                <path d="M156.62123,131.843209 C155.724586,127.381048 152.645204,125.889644 149.762057,125.889644 C146.281148,125.889644 143.893117,128.074024 142.999493,131.843209 L156.62123,131.843209 Z M171.53208,159.227802 C166.363549,161.611036 159.105868,163 152.442931,163 C135.147069,163 123.3156,153.47309 123.3156,137.995628 C123.3156,121.921605 135.938047,112 149.861684,112 C161.889388,112 174.3156,119.441957 174.3156,137.004372 C174.3156,138.589177 174.215973,140.574703 174.019738,141.963668 L143.298374,141.963668 C145.188269,147.121817 149.861684,148.908489 155.129843,148.908489 C159.703631,148.908489 165.666159,147.519525 171.53208,144.343888 L171.53208,159.227802 Z" id="Fill-5" fill="#2F1C3F"></path>
                <path d="M246.3156,157.840151 C239.644826,161.014979 230.785723,163 222.126109,163 C197.640408,163 181.3156,147.327675 181.3156,126.3961 C181.3156,105.066919 198.335595,89 221.727132,89 C230.187258,89 237.952196,91.08141 243.924761,94.0574348 L243.924761,113.799202 C237.556242,109.928563 229.788281,107.151341 222.525086,107.151341 C209.685281,107.151341 201.820599,115.585419 201.820599,126.3961 C201.820599,137.01099 209.48277,145.737249 222.126109,145.737249 C223.61925,145.737249 225.411624,145.541458 226.505788,145.243253 L226.505788,137.604388 L216.652266,137.604388 L216.652266,122.627875 L246.3156,122.627875 L246.3156,157.840151 Z" id="Fill-6" fill="#F05D60"></path>
                <path d="M281.238979,122.421441 C285.666135,122.421441 288.721201,122.019797 290.39521,121.125912 C292.759747,119.933059 294.036179,117.647009 294.036179,114.464055 C294.036179,111.181445 292.658111,108.792719 290.099269,107.602886 C288.227966,106.705981 285.767771,106.307357 280.650087,106.307357 L277.595021,106.307357 L277.595021,122.421441 L281.238979,122.421441 Z M257.3156,90 L280.449804,90 C289.704681,90 296.59801,91.0931969 301.912988,93.777871 C309.296563,97.4560859 314.3156,104.021307 314.3156,114.065431 C314.3156,122.421441 310.773278,128.883986 303.685644,133.060482 C298.170383,136.343092 290.589514,137.934569 280.844392,137.934569 L277.595021,137.934569 L277.595021,162 L257.3156,162 L257.3156,90 Z" id="Fill-7" fill="#F05D60"></path>
                <path d="M350.971875,111.878119 C349.58797,116.453047 348.204066,120.626347 346.522966,125.300927 L344.049349,132.164828 L357.8914,132.164828 L355.519849,125.300927 C353.83875,120.430063 352.550908,116.350375 351.167003,111.878119 L350.971875,111.878119 Z M341.281539,90 L361.352663,90 L390.3156,162 L368.173122,162 L363.132827,147.281718 L338.612794,147.281718 L333.374369,162 L312.3156,162 L341.281539,90 Z" id="Fill-8" fill="#F05D60"></path>
                <path d="M187.920551,3.95595909 C190.434295,9.14932516 193.913941,10.5885602 197.624564,8.18579517 C195.161814,3.59539283 193.472986,2.82578082 187.920551,3.95595909 M168.608514,4.11957739 C163.446039,2.60762309 160.929294,3.78628085 159.00649,8.41001284 C163.23606,10.2673836 166.217757,8.9917668 168.608514,4.11957739 M153.526047,13.0458647 C153.448055,11.4702811 153.373063,10.0401359 153.286071,8.31002388 C149.245482,11.3127227 148.87352,12.3792716 149.95041,16.9514941 C154.566941,17.7726156 156.483746,16.8302954 157.962596,12.8034672 C156.486746,12.8822464 155.112886,12.9579956 153.526047,13.0458647 M202.952022,13.0004152 L198.401485,13.0004152 C200.735248,17.2363112 202.430076,17.9756235 206.731638,16.769696 C207.706539,12.4822906 206.767635,10.2128441 203.27299,8.68876994 C203.165001,10.1370949 203.063011,11.5308804 202.952022,13.0004152 M178.237535,78.4386457 C180.607294,78.4810652 182.035149,77.1993886 182.179134,74.9026724 C182.32012,72.6180761 180.664288,70.9031139 178.276531,70.8576644 C175.975765,70.8152448 174.466918,72.2029704 174.370928,74.4481771 C174.271938,76.863062 175.753787,78.3931962 178.237535,78.4386457 M210.490256,22.9629517 C208.756432,22.2084896 207.097601,21.487357 205.273786,20.6935053 C205.786734,26.0686695 207.79353,28.235097 212.848016,29.198627 C215.880708,25.4111663 215.982698,21.9024627 212.920009,17.6786866 C212.065096,19.5421172 211.297174,21.2116299 210.490256,22.9629517 M143.627053,17.833215 C140.306391,22.0115416 140.360385,25.0324202 143.609055,29.198627 C148.570551,28.4805244 151.486254,25.1566489 150.847319,20.6147261 C149.239483,21.4146378 147.715638,22.1812198 146.104801,22.9841615 C145.294884,21.3055589 144.490965,19.6360463 143.627053,17.833215 M138.404584,32.9254883 C136.778749,37.2280436 138.281597,41.8881352 141.833236,43.5546179 C142.418176,43.830345 143.486068,43.6333971 144.071008,43.2485911 C147.391671,41.0579238 148.471561,36.9220168 146.695741,32.6861208 C145.252888,34.1586855 143.918024,35.5252013 142.538164,36.9311067 C141.833236,36.1705846 141.218298,35.452482 140.540367,34.7949789 C139.880434,34.1526255 139.157508,33.5769315 138.404584,32.9254883 M209.605346,32.4528132 C208.168492,37.4674111 209.344373,41.1912425 212.629039,43.2698009 C213.141987,43.5940075 214.014898,43.739446 214.566842,43.5364381 C218.094483,42.2274917 219.888301,36.7462786 217.500544,32.089217 C216.099686,33.8375088 214.923805,35.3009836 213.70293,36.8220278 C212.593042,35.6373101 211.261178,34.2192848 209.605346,32.4528132 M139.091514,47.9904919 C138.83954,53.2505172 141.761243,57.4197539 145.663846,58.1014969 C146.299782,58.2136057 147.29568,57.7924401 147.733636,57.2773454 C150.559349,53.94741 150.496355,49.4630566 147.421668,45.666506 C146.419769,47.6541653 145.492864,49.4842663 144.595955,51.2719478 C142.898127,50.2599383 141.233297,49.2691386 139.091514,47.9904919 M204.400875,57.2106861 C199.616362,60.0770363 198.494476,63.8523771 200.459276,69.3214704 C206.089704,70.0244231 209.659341,67.9579845 211.159188,62.8312777 C208.963411,63.0827651 206.90862,63.3160727 204.937821,63.5402904 C204.763838,61.5011216 204.592856,59.4589228 204.400875,57.2106861 M145.171896,63.1312446 C147.622647,68.5518583 151.192284,70.3516597 156.312764,69.1154325 C157.839608,63.5675601 156.615733,59.7740395 152.128189,57.2803754 C151.852217,59.5164922 151.594243,61.5647509 151.33027,63.6857289 C150.430362,63.5009008 149.542452,63.2342636 148.636544,63.1524544 C147.604649,63.0615554 146.554756,63.1312446 145.171896,63.1312446 M209.086399,45.3938088 C205.990714,49.8296828 206.02371,53.5504841 208.621446,57.0652476 C209.389368,58.0984669 210.172289,58.3590442 211.33917,57.989388 C215.358761,56.7168012 217.764517,53.0626592 217.572536,48.0541212 C215.523744,49.1842995 213.615938,50.2326686 211.840119,51.2143784 C210.991205,49.4266969 210.142292,47.6299256 209.086399,45.3938088 M156.516743,74.3118285 C160.689319,77.9114312 165.029878,78.5628744 168.578517,76.5418854 C169.517421,76.005581 170.31534,75.4389768 170.243348,74.072461 C170.006372,69.5426581 165.707809,65.5400696 160.68032,65.6491485 C161.535233,67.9034451 162.34815,70.0365429 163.071077,71.9363332 C160.926295,72.7120052 158.982492,73.4179878 156.516743,74.3118285 M186.228723,75.13598 C190.896248,78.7325526 195.548775,78.5719643 199.382385,74.6057355 C197.813545,72.5817165 195.248806,72.8635036 193.014033,72.0666219 C194.102922,69.8214152 195.656764,67.9398047 195.3028,65.3976611 C189.423398,66.4914797 187.056638,69.0790729 186.228723,75.13598 M218.925399,44.5332977 C220.989189,46.0240423 221.502137,47.787484 221.121175,50.187219 C220.413247,54.6382428 218.22647,57.9409085 214.521846,60.2527745 C215.703726,66.1975728 212.90801,69.5608379 203.776939,73.2907291 C202.676051,78.5446946 195.968732,82.2806458 190.110328,80.7777814 C188.298512,80.3141962 186.570688,79.5021646 184.830865,78.8567813 C179.014456,83.0411679 176.737687,83.0502578 171.908178,78.8689012 C170.42033,79.3809659 168.881486,79.9112104 167.342642,80.4384249 C162.561129,82.0776379 158.457546,80.4535748 154.809916,77.4842056 C153.760023,76.6236945 153.331067,74.9875115 152.236178,73.0301518 C152.053197,72.9725824 151.057298,72.6877654 150.067399,72.3787086 C146.320779,71.2182307 143.687047,68.6912369 142.163202,65.1613236 C141.557264,63.7584481 141.755244,62.0010664 141.548265,60.0346168 C135.077922,54.7321718 133.251108,48.1632001 137.723653,44.6817662 C135.137916,41.7851163 134.013031,38.4006414 134.384993,34.4707722 C134.744956,30.6348321 135.389891,29.7591712 139.097514,28.9592595 C137.579668,25.1263493 137.456681,21.3419186 139.424481,17.5938475 C141.119308,14.363901 141.917227,13.9336455 145.813831,14.7335572 C145.930819,11.7581281 146.914719,9.1553851 149.089498,7.06773678 C151.177286,5.06795754 153.268073,3.30148588 156.05779,5.78303012 C159.648425,0.47149527 164.087973,-0.837451138 169.13346,0.613903791 C172.094159,1.46835492 172.922075,3.23482658 171.545215,6.00421782 C170.006372,9.09478573 167.978578,11.6157196 164.279954,12.2126234 C162.864098,12.439871 161.868199,13.1307038 161.217265,14.7274972 C160.101379,17.4605289 157.82161,19.2421504 155.127884,20.335969 C153.721027,26.2534976 153.721027,26.2534976 150.133392,30.6318021 C151.096294,34.2707943 151.477255,38.0249253 149.452461,41.9305548 C152.128189,45.1514113 153.59804,48.9661417 152.971103,53.2838469 C156.189776,55.3714952 158.670524,57.8378896 159.933396,61.5223313 C165.359844,62.1798345 169.814391,64.54321 172.58311,69.6850666 C176.377724,66.6702479 180.067349,66.6247984 183.903959,69.7820256 C186.573687,64.54018 191.013236,62.2010443 196.511677,61.4950616 C198.06252,58.183306 199.766346,55.0230488 203.46497,53.5050346 C202.940024,49.1630897 204.322883,45.4241085 206.737638,42.1487125 C205.261788,37.0341256 205.210793,35.6554899 206.272685,30.3197153 C203.85793,28.1199582 202.508068,25.3081474 201.875132,22.0327514 C201.710149,21.1661804 200.726249,20.4177782 200.03032,19.6996756 C198.482477,18.1028822 196.490679,16.7848459 195.413789,14.9214152 C194.459886,13.2731123 193.355998,12.5156202 191.703166,12.0944546 C188.187523,11.1975839 186.081737,8.69179991 184.725875,5.49518311 C183.732976,3.14998746 184.509897,1.58652369 186.858658,0.704802848 C191.346202,-0.985919597 196.319697,0.432105679 199.274396,4.24077613 C199.63436,4.70436132 199.982324,5.17703641 200.114311,5.34974462 C201.713148,5.14976669 203.206997,4.50438339 204.325883,4.90736921 C206.839627,5.81938974 208.660442,7.79492923 209.701336,10.321923 C210.238282,11.6278394 210.514254,13.0458647 210.889216,14.3457212 C212.263076,14.4487401 213.804919,14.173013 214.887809,14.7577969 C215.904706,15.3122812 216.561639,16.7060667 217.161578,17.8483648 C219.066384,21.4691772 218.886403,25.1930086 217.410553,28.8380607 C218.610431,29.3167958 220.131276,29.4682942 220.824206,30.3136554 C221.652121,31.3286949 221.96409,32.9073085 222.165069,34.2889741 C222.693016,37.8976667 221.883098,40.2883118 218.925399,44.5332977" id="Fill-9" fill="#171945"></path>
                <path d="M186.3156,74.4891004 C187.133657,68.5871988 189.472235,66.0628737 195.281628,65 C195.634341,67.4770863 194.096038,69.3105434 193.023078,71.4982919 C195.231241,72.2747802 197.762476,72.0002045 199.3156,73.9724257 C195.524674,77.8371527 190.930511,77.9936313 186.3156,74.4891004" id="Fill-10" fill="#4BB4B9"></path>
                <path d="M156.3156,73.6448197 C158.826574,72.7527467 160.811497,72.0511842 162.998276,71.2740223 C162.258136,69.3779891 161.432359,67.2521338 160.560705,65.0022955 C165.683581,64.8904084 170.069374,68.885081 170.31099,73.4059255 C170.384392,74.7697388 169.570849,75.3382464 168.61356,75.8704662 C164.995433,77.8874584 160.56988,77.2373035 156.3156,73.6448197" id="Fill-11" fill="#4BB4B9"></path>
                <path d="M209.713849,45 C210.785776,47.2790975 211.645139,49.1104048 212.501466,50.9324475 C214.302183,49.9349564 216.230437,48.8633482 218.304449,47.7114466 C218.501829,52.8162544 216.066459,56.5406332 211.994351,57.8376806 C210.813105,58.214442 210.023584,57.9488561 209.246209,56.8988654 C206.613459,53.3134559 206.583093,49.5211365 209.713849,45" id="Fill-12" fill="#4BB4B9"></path>
                <path d="M145.3156,62.7528305 C146.725969,62.7528305 147.796748,62.6843444 148.849171,62.7736741 C149.7731,62.8540708 150.678673,63.1161045 151.596484,63.2977414 C151.865709,61.2104049 152.128814,59.2004874 152.410276,57 C156.987092,59.4535882 158.235314,63.1816129 156.678096,68.6337001 C151.455753,69.8485836 147.815104,68.0798562 145.3156,62.7528305" id="Fill-13" fill="#4BB4B9"></path>
                <path d="M204.336354,57 C204.531513,59.2034314 204.711182,61.204931 204.890852,63.2034611 C206.926079,62.9837119 209.048042,62.7520843 211.3156,62.5056088 C209.766722,67.5331146 206.077293,69.5583709 200.265901,68.8694274 C198.236871,63.5063586 199.395432,59.8092265 204.336354,57" id="Fill-14" fill="#4BB4B9"></path>
                <path d="M139.331129,48.2418009 C141.52942,49.4736237 143.241254,50.4281405 144.980797,51.4030903 C145.904448,49.6808735 146.85273,47.9177906 147.881062,46 C151.03995,49.6575214 151.101527,53.9805775 148.201261,57.1856522 C147.751751,57.6818841 146.729577,58.0905458 146.076863,57.9825423 C142.074374,57.3228457 139.072507,53.3062859 139.331129,48.2418009" id="Fill-15" fill="#4BB4B9"></path>
                <path d="M209.944945,32.3465948 C211.674845,34.0304679 213.060642,35.3821877 214.21808,36.5086208 C215.491262,35.0586992 216.71752,33.6665434 218.181522,32 C220.671577,36.4393018 218.797779,41.6642185 215.119005,42.9090715 C214.546542,43.1054753 213.636233,42.9668373 213.101309,42.654902 C209.672791,40.6764233 208.446533,37.1238266 209.944945,32.3465948" id="Fill-16" fill="#4BB4B9"></path>
                <path d="M137.983524,33.2364108 C138.752478,33.8910868 139.490797,34.4639283 140.164781,35.1064807 C140.854083,35.7641876 141.485177,36.4825127 142.205114,37.2432705 C143.614354,35.8369294 144.977639,34.4699901 146.451214,33 C148.26178,37.2341778 147.16196,41.3743974 143.770595,43.5627126 C143.1732,43.9476379 142.082572,44.1476778 141.485177,43.8718652 C137.857918,42.2018352 136.323072,37.5433303 137.983524,33.2364108" id="Fill-17" fill="#4BB4B9"></path>
                <path d="M143.845465,18 C144.728881,19.744868 145.550949,21.3607038 146.376084,22.9853372 C148.023287,22.2082111 149.584602,21.4662757 151.22567,20.6920821 C151.882098,25.0879765 148.897501,28.3049853 143.823993,29 C140.501981,24.9677419 140.449835,22.0439883 143.845465,18" id="Fill-18" fill="#4BB4B9"></path>
                <path d="M210.586838,23.0457654 C211.402227,21.3734876 212.175181,19.7764335 213.042101,18 C216.136945,22.0302472 216.033884,25.3834824 212.966321,29 C207.861799,28.0770647 205.833933,26.0084166 205.3156,20.878748 C207.155532,21.6367701 208.83481,22.3253551 210.586838,23.0457654" id="Fill-19" fill="#4BB4B9"></path>
                <path d="M178.276869,77.9989234 C175.735382,77.9509742 174.219084,76.3366846 174.320375,73.788984 C174.415528,71.4202937 175.95945,69.956245 178.316772,70.0009975 C180.760037,70.0489467 182.451292,71.8582297 182.307029,74.2684759 C182.162766,76.6915086 180.701718,78.0436759 178.276869,77.9989234" id="Fill-20" fill="#4BB4B9"></path>
                <path d="M203.02704,12.511228 C203.141953,10.9736696 203.247549,9.51536681 203.359356,8 C206.977568,9.5946224 207.949671,11.9691198 206.940299,16.454986 C202.486637,17.7167349 200.734988,16.9400302 198.3156,12.511228 L203.02704,12.511228 Z" id="Fill-21" fill="#4BB4B9"></path>
                <path d="M153.634755,12.781842 C155.308972,12.6931194 156.755318,12.6166344 158.3156,12.53709 C156.752153,16.6030325 154.732965,17.5545058 149.862228,16.7254085 C148.726039,12.108774 149.118483,11.0318653 153.381565,8 C153.473346,9.74691733 153.552468,11.1909541 153.634755,12.781842" id="Fill-22" fill="#4BB4B9"></path>
                <path d="M169.3156,3.65068304 C166.824975,8.75645832 163.72185,10.0932316 159.3156,8.14681351 C161.3156,3.3045826 163.937475,2.06624158 169.3156,3.65068304" id="Fill-23" fill="#4BB4B9"></path>
                <path d="M188.3156,3.47668068 C194.037393,2.31196676 195.777733,3.10509635 198.3156,7.83577086 C194.491798,10.3119589 190.906017,8.82874412 188.3156,3.47668068" id="Fill-24" fill="#4BB4B9"></path>
                <path d="M191.930696,31.2119513 C192.241669,32.9586771 191.299604,33.5094738 189.857543,33.3481908 C188.78743,33.2264678 187.708171,32.9434617 186.692936,32.5722064 C183.735645,31.4980005 183.000895,30.12253 183.689913,26.963817 C184.125885,24.9553867 184.784416,22.9956456 185.168559,20.9780861 C185.772212,17.7950284 184.28442,14.980183 181.644199,13.6960048 C180.196041,12.9960973 179.321048,13.3338787 178.833248,14.7945553 C178.644225,15.3666536 178.4613,15.9691827 178.443007,16.5625826 C178.299716,20.9415692 176.418634,24.7423714 174.59243,28.5888197 C172.772324,32.4109233 169.857715,34.6110674 165.656531,35.1831657 C163.296795,35.5026887 160.952303,35.9195902 158.284643,36.3425778 C158.549885,38.7618233 158.629153,40.9376228 159.043783,43.0495177 C160.309016,49.49171 163.906546,53.9559027 170.644293,54.8688256 C175.186937,55.4926562 179.836288,55.6082931 184.424663,55.4804839 C186.497816,55.4196224 188.577066,54.3149857 190.583147,53.4994413 C192.6563,52.6565092 193.875801,50.9280419 194.055678,48.7370271 C194.238603,46.5186245 195.720298,44.7201665 195.308716,42.1791979 C194.967256,40.0581738 196.320902,37.6997897 196.735533,35.4113965 C196.894068,34.5319474 196.738582,33.4638277 196.366634,32.6452402 C195.137986,29.9460316 190.327051,28.1445305 186.628912,29.2765549 C188.702065,30.0342808 190.327051,30.6276807 191.930696,31.2119513 M188.074022,24.1002823 C191.281312,25.6035619 194.311773,26.805577 197.113579,28.4062351 C199.519046,29.7786624 200.580012,32.2526834 200.259893,34.951892 C199.595265,40.5754967 198.887954,46.2234461 196.927605,51.5823033 C196.00993,54.086755 194.137994,55.9521607 191.668503,56.8650836 C189.074013,57.8206095 186.333183,58.8552554 183.625889,58.9435046 C178.909466,59.0956584 174.101581,58.9708923 169.464425,58.1918648 C162.321194,56.9928928 157.775501,52.3765462 156.034663,45.4322463 C155.284669,42.4500317 155.470643,39.2304571 155.321254,36.111304 C155.220645,34.0176676 156.470635,33.0925724 158.437081,32.8278248 C160.836451,32.5052587 163.220577,32.0609696 165.619946,31.717102 C168.10773,31.3610621 169.781496,30.0068932 171.031485,27.8584814 C173.254027,24.0333346 174.988768,20.0499479 175.153401,15.5705397 C175.35157,10.1721226 180.567989,8.47712915 184.601491,11.4593438 C187.503905,13.6077556 188.662432,16.5169364 188.604505,19.973871 C188.580115,21.4162891 188.244752,22.8587072 188.074022,24.1002823" id="Fill-25" fill="#171945"></path>
                <path d="M192.513837,31.789851 C190.931536,31.2080968 189.328178,30.6172527 187.282618,29.8627903 C190.931536,28.7356416 195.678439,30.5293836 196.890734,33.2169667 C197.257732,34.0320286 197.411149,35.0955479 197.254724,35.9712092 C196.845612,38.2497464 195.509981,40.5979729 195.846897,42.7098617 C196.253001,45.2398864 194.791027,47.0305985 194.610537,49.2394464 C194.433054,51.4210245 193.229783,53.1420473 191.184223,53.9813489 C189.204843,54.7933808 187.153267,55.8932598 185.107707,55.9538592 C180.580401,56.0811179 175.992931,55.9659791 171.510748,55.3448353 C164.862678,54.4358444 161.313029,49.9908789 160.064636,43.5764331 C159.655524,41.4736341 159.577311,39.3072058 159.3156,36.8983799 C161.947755,36.4772141 164.261042,36.0621083 166.589371,35.7439614 C170.734639,35.1743271 173.610455,32.9836591 175.406337,29.1780172 C177.208235,25.3481355 179.06428,21.5637034 179.205664,17.203577 C179.223713,16.6127329 179.404204,16.0127989 179.590711,15.4431646 C180.072019,13.9887792 180.935366,13.6524525 182.364249,14.3493456 C184.96933,15.6279928 186.437321,18.4307147 185.841702,21.600063 C185.462671,23.6089329 184.812905,25.5602334 184.382736,27.5600133 C183.702888,30.7051219 184.427859,32.0746682 187.34579,33.1442475 C188.347513,33.5139038 189.412407,33.7956909 190.468277,33.9168897 C191.891145,34.0774781 192.820671,33.5290536 192.513837,31.789851" id="Fill-26" fill="#FEC440"></path>
            </g>
        </g>
    </g>
</svg>